<svg xmlns="http://www.w3.org/2000/svg" width="128" height="36" fill="none" viewBox="0 0 128 36"><path fill="#fff" d="M0 8.036h5.888L7.05 9.91q1.453-1.08 2.725-1.622 1.309-.576 3.308-.576 1.744 0 2.943.72a4.7 4.7 0 0 1 1.854 1.91q3.489-2.63 6.178-2.63 3.562 0 4.907 1.838 1.344 1.837 1.344 5.657V27.46h-7.05V15.856q0-1.045-.51-1.442-.507-.432-1.416-.432-.728 0-1.454.324-.728.325-1.2.793V27.46h-7.05V15.856q0-1.045-.509-1.442-.51-.432-1.417-.432-.728 0-1.454.324a4 4 0 0 0-1.2.793v12.36H0zm42.01 19.423q-5.67 0-6.869-5.621L32.125 8.036h7.305l2.217 12.396q.218 1.334 1.562 1.406l2.508-13.802h7.16l-4.98 24.396L46.08 36h-5.96zm20.858 0q-2.58 0-4.07-.684-1.454-.685-2.108-2.27-.655-1.587-.546-4.36l.218-6.56h-3.016V9.118l3.307-1.081.873-5.441h5.596v5.441h3.962v5.55h-3.962v6.522q0 .937.291 1.406.327.432 1.018.504l2.507.252v5.19zM69.42 0h7.05v9.91q.91-.865 2.472-1.514 1.599-.684 3.126-.684 3.307 0 4.652 1.802 1.38 1.801 1.38 5.333v12.612h-7.05V15.784q0-1.802-1.926-1.802-.69 0-1.454.324-.726.325-1.2.793v12.36h-7.05zm30.624 27.64q-3.525 0-5.561-.973-2-1.01-2.907-3.136-.873-2.161-.873-5.837 0-3.928.873-6.054.908-2.162 2.907-3.027 1.999-.901 5.561-.901t5.56.937q2 .9 2.872 3.063.908 2.162.908 5.982 0 3.819-.872 5.946-.835 2.125-2.835 3.063-1.998.936-5.633.937m0-5.55q.981 0 1.417-.252.472-.288.655-1.19.218-.936.218-2.99 0-2.019-.218-2.92-.183-.936-.655-1.188-.436-.29-1.417-.289-.982 0-1.454.289-.436.252-.654 1.189-.182.9-.182 2.919 0 2.054.182 2.99.218.902.654 1.19.473.252 1.454.252m19.414 5.586q-2.253 0-4.288-.253-2-.288-3.307-.864v-4.073h9.085q.655 0 .873-.144.218-.18.218-.576v-.469q0-.396-.291-.576-.255-.18-1.054-.18h-3.271q-2.69 0-4.361-1.334-1.636-1.333-1.636-4.252v-1.19q0-1.981.727-3.242.763-1.298 2.617-1.982 1.89-.685 5.161-.685 1.89 0 3.961.36 2.108.324 3.162.757v4.072h-8.613q-.546 0-.8.18-.254.145-.254.54v.47q0 .432.291.612.327.144 1.163.144h3.379q3.053 0 4.398 1.37Q128 17.73 128 20.323v1.982q0 2.883-2.072 4.145-2.071 1.224-6.469 1.225"/></svg>