<?xml version="1.0" encoding="utf-8"?>
<!-- Generator: Adobe Illustrator 15.0.0, SVG Export Plug-In  -->
<!DOCTYPE svg PUBLIC "-//W3C//DTD SVG 1.1//EN" "http://www.w3.org/Graphics/SVG/1.1/DTD/svg11.dtd" [
	<!ENTITY ns_flows "http://ns.adobe.com/Flows/1.0/">
]>
<svg version="1.1"
	 xmlns="http://www.w3.org/2000/svg" xmlns:xlink="http://www.w3.org/1999/xlink" xmlns:a="http://ns.adobe.com/AdobeSVGViewerExtensions/3.0/"
	 x="0px" y="0px" width="491px" height="494px" viewBox="-4 0 491 494" style="enable-background:new -4 0 491 494;"
	 xml:space="preserve">
<style type="text/css">
<![CDATA[
	.st0{fill:#E5E9FF;}
	.st1{fill:#805F75;}
	.st2{clip-path:url(#SVGID_2_);}
	.st3{clip-path:url(#SVGID_4_);}
	.st4{fill:#FED710;}
	.st5{fill:#FFFFFF;}
	.st6{fill:#00D3D4;}
	.st7{fill:#029FA0;}
	.st8{fill:#0A0D23;}
]]>
</style>
<defs>
</defs>
<g>
	<defs>
		<rect id="SVGID_1_" width="483" height="486"/>
	</defs>
	<clipPath id="SVGID_2_">
		<use xlink:href="#SVGID_1_"  style="overflow:visible;"/>
	</clipPath>
	<g class="st2">
		<path class="st5" d="M65.3,239.3c-7.2-8.7-17.9-17-30.1-16.6c-11.2,0.4-22.4,7.9-26.3,18.2c-6.4,16.9-3.6,36.7-1.5,54.2
			c0.9,7.9,3.1,15.6,6.5,22.8c1.1,2.3,2.3,4.5,3.6,6.7c7.3-5.2,17.1-8.4,26.2-7.6c-1.3-7.4-5.1-12.8-11.1-17.5
			c-0.2-0.1-0.5-0.3-0.6-0.5s-0.3-0.4-0.4-0.7c-0.1-0.3-0.1-0.6-0.1-0.8c0-0.3,0.1-0.6,0.3-0.8c3.7-9.5,5.7-19.5,5.8-29.7
			c0.1-0.6,0.3-1.2,0.7-1.6c0.4-0.5,1-0.8,1.6-0.9c0.3-0.1,0.6-0.1,0.9,0c0.3,0,0.6,0.2,0.9,0.3c0.3,0.2,0.5,0.4,0.7,0.6
			c0.2,0.3,0.3,0.6,0.4,0.9c3.9,11.3,7.8,23.3,16.1,32.3c-0.2-3.6-0.1-7.3,0.1-10.9c0.9-15.8,3.5-32.2,8.7-47.5
			c-0.4,0.2-0.9,0.2-1.4,0.1C66,240,65.6,239.7,65.3,239.3L65.3,239.3z"/>
		<path class="st1" d="M20.4,328.6c2.2,2.8,5.2,4.7,8.6,5.5c8.8,1.7,14.2-4.8,14.9-12.2C35.8,321,26.8,324,20.4,328.6z"/>
		<path class="st6" d="M290.4,262.6c10.2-5.1,25.5-10.7,34.8-1.1c7.9,8.1,9,20.8,9.4,31.4c0.5,14.3-2.1,29.7,1.5,43.7
			c3.4,13.1,12.5,21.5,23.6,28c-13.8-17-9.8-47.1-7.7-67.8c1.8-18.1,1.8-40.6-11.9-54.8c-8.1-8.3-19.7-12.3-31.4-8.8
			s-21.8,11.7-24.7,23.5c0,0.1,0,0.2-0.1,0.3c1.7,1.2,3.3,2.5,4.7,4C289.3,261.3,289.8,262,290.4,262.6z"/>
		<path class="st7" d="M173,201.3c0,7.3,1,14.5,3,21.5c1.9,6.5,5.3,12.5,10,17.4c0.3-0.1,0.6-0.2,0.9-0.2
			c16.2-0.3,20.9-10.9,27.8-22.9c1.9-3.5,4.5-6.6,7.4-9.3C204.5,209.3,186.6,214.5,173,201.3z"/>
		<path class="st6" d="M176,169.6c7.3,8.7,19.4,11.6,30.7,12c-1.8-4.3-3.4-8.7-4.7-13.3c-3.5-11.6-5.1-25.7-14.5-34.5
			c-5.6-5.1-12.4-8.7-19.8-10.3l-3.9-0.9c8.4,8.6,13.9,19.4,13.7,32.2C177.3,159.8,176.8,164.7,176,169.6z"/>
		<path class="st1" d="M111.9,465.5c0.8,2.3,1.9,4.5,3.2,6.5c2.8,4.1,6.8,5,11.4,2.4c1.7-0.9,3.1-2.1,4.3-3.6s2-3.2,2.5-5
			C126.3,463.9,119,463.8,111.9,465.5z"/>
		<path class="st7" d="M173.4,189.4c-0.1,1.6-0.2,3.2-0.3,4.9c0.3,0.2,0.6,0.4,0.9,0.7c14.2,17.1,35,8.1,54.2,7.6
			c-5.6-1.8-10.7-5.1-14.6-9.5c-1.7-2-3.1-4.1-4.4-6.4c-0.2,0-0.4,0-0.6,0c-12.2-0.1-24.7-3-33.6-10.9
			C174.4,180.3,173.7,184.8,173.4,189.4z"/>
		<path class="st5" d="M157.9,83.8c-0.9-7.4-1.7-14.9-2.1-22.4c-0.2-0.3-0.4-0.6-0.5-0.9c-1.2-3.4-5.6-3.9-9-3.3
			c-1,7.5-2,15-2.9,22.5C148.8,78.1,153.7,80.2,157.9,83.8z"/>
		<path class="st5" d="M158.8,92c-0.1-0.1-0.3-0.2-0.4-0.3c-4-4.6-9.2-10-15.7-6.2l-0.2,0.1c-0.8,6.8-1.6,13.5-2.4,20.3
			c0,0.4-0.2,0.8-0.4,1.2c3.7,1.5,7.4,3.3,10.8,5.4c0.4,0,0.8,0.2,1.2,0.4c3.1,2,6.5,3.4,10,4.2C161,108.6,159.9,100.3,158.8,92z"/>
		<path class="st5" d="M155.4,53.6c-0.5-14.2-0.1-28.4-0.5-42.5c-0.1-2.4,0.4-8.8-0.7-3.5c-0.6,3-1.1,6-1.6,9
			c-1.8,9.7-3.4,19.4-4.8,29.1c-0.3,2.1-0.5,4.2-0.8,6.3C149.8,51.7,152.8,52.3,155.4,53.6z"/>
		<path class="st1" d="M164,447.3c-1.1,4.6-1.6,9.3-1.5,14c7.2,1.4,14.3,2.6,21.5,3.5c0.4-1.5,0.8-3,1.2-4.5c0-0.1-0.1-0.1-0.2-0.2
			C178.9,454.4,172.3,449.5,164,447.3z"/>
		<path class="st7" d="M334.1,346.4c-5.7-12.9-4.8-26.5-4.6-40.1c0.1-11.5,1-25.2-4.3-35.8c-6.6-13.1-20.5-9.2-31.7-3.8
			c5.1,7.7,7.2,16.7,7.2,26c18.1,4.8,18.9,24.6,21.1,39.4c1.4,9.5,4,17.3,11.7,24c8.5,7.4,18.6,12.8,29.4,15.8
			C351,366.1,339.4,358.4,334.1,346.4z"/>
		<path class="st5" d="M278.9,259.6c-15.8-9.2-33.3-4.6-50.5-3.2c-21.2,1.6-44.4-3.4-54.1-23.6c-9.2-19.3-7.1-42-4-62.4
			c-0.1-0.4,0-0.8,0.2-1.2c1.9-12.5,2.8-24.4-4.5-35.7c-6.9-10.6-17.9-18.3-30.1-22.7c-12.4-4.4-26.2-6.4-39.3-4.4
			c-12.5,1.9-34,9.4-27.8,25.6c5,13,17.6,15.7,28.8,22c8.7,4.9,14.9,11.5,12.9,21.7c-0.1,0.7-0.1,0.7-0.4,1.7
			c-1.8,14.2-15.4,24.1-23.2,35.6c-10.2,15.3-16,31.8-19.4,49.6s-6.5,38.6,0.4,55.9c2.1,5.3,5.5,10,9.9,13.8c1,0.8,14.7,9,22.1,10.1
			c-0.5-4.9-1.1-9.9-1.5-14.9c-0.3-3.2,4.9-3.2,5.2,0c0.6,6.6,1.4,13.1,2.1,19.7c0.9,9.2,1.6,18.5,0.8,27.7
			c-0.8,9.2-2.9,18.1-3.3,27.3c-0.8,15,2.9,28.8,5.1,43.4c0.7,4.7,1.2,10,2.4,15c7.7-1.9,15.7-1.8,23.4,0.1c0-0.3,0-0.6,0-1
			c-0.4-12.4-5.6-23.9-8-36c-2-10.5,0.4-21,5.7-30.3c11.7-20.7,36.1-38.5,31-64.4c-0.6-3.1,4.4-4.5,5-1.3c2.1,11-0.3,20.9-5.1,30.2
			c16.1,1.9,33.1,1.4,45.8-8.9c0.6-3.5,1.7-7,3.2-10.2c1.4-2.9,5.9-0.4,4.5,2.5c-0.7,1.5-1.3,3-1.8,4.6l-0.1,0.3
			c0.1,0,0,0.1-0.1,0.4c-0.4,1.4-0.7,2.9-0.9,4.4c-0.1,0,0,0.6-0.1,0.6c0,0.5-0.1,1-0.1,1.5c0,0.5,0,1.2,0,1.8
			c-0.1,1.8,0,3.6,0.5,5.4c1,5.5,3.4,10.6,6.9,14.9c0,0,3.1,3.4,3.8,4h0.1c0.8,0.7,1.6,1.3,2.4,2c8.1,6,13.6,12.7,13.3,23
			c-0.4,12.8-5.8,24.4-11.1,36c-3.2,6.5-5.9,13.3-8.1,20.3c8.7,2,16.6,6.5,22.9,12.9c0.3-1,0.5-1.9,0.8-2.5c1-3.3,2.2-6.5,3.6-9.7
			c4.6-9.7,11.5-18.4,16.3-28.1c3.5-7.3,6.3-14.8,8.5-22.5c3.6-11.5,7.2-23.4,7.9-35.4c0.3-4.4,0.6-10.3-2.2-14.1
			c-3.2-4.4-9.6-2.1-13.7-0.4c-3,1.2-4.3-3.2-1.7-4.7c0-0.3,0-0.5,0.1-0.8c0.1-0.3,0.2-0.5,0.4-0.7c13.7-17.5,31.2-36.5,31.8-59.6
			C295.9,281.3,291.8,267.1,278.9,259.6z M132.3,135.3c-1.1,0-2.2-0.4-3.1-1.1c-0.9-0.6-1.6-1.5-2-2.6c-0.4-1-0.5-2.2-0.2-3.2
			c0.2-1.1,0.8-2.1,1.6-2.8c0.8-0.8,1.8-1.3,2.9-1.5c1.1-0.2,2.2-0.1,3.2,0.4c1,0.4,1.9,1.2,2.5,2.1c0.6,0.9,0.9,2,0.9,3.1
			c0,1.5-0.7,3-1.8,4C135.3,134.7,133.9,135.3,132.3,135.3z"/>
		<path class="st7" d="M318.3,342.1c-3.5-13.8-0.8-38.6-17.9-44.2c-0.3,3.9-1,7.7-2.2,11.5c0.2,0.3,0.4,0.5,0.5,0.9
			c0.4,0.1,0.8,0.3,1.1,0.6c14,12.6,7.9,34.5,21.5,47.6c7.6,7.1,17.1,11.9,27.3,13.8C334.8,366,321.8,355.9,318.3,342.1z"/>
		<path class="st0" d="M207.8,355.7c-12,7.7-26.8,8.8-41.3,7.6c5.7,14.6,13.5,30,10,46c-2.6,11.5-7.9,22.1-11.2,33.2
			c8.4,2.2,15.3,6.8,21.7,12.5c8.7-25.3,24.9-47.9,31.2-74c-1.6-1.4-3-3-4.3-4.8C209.8,370.2,207.7,363,207.8,355.7z"/>
		<path class="st1" d="M219.6,465.4c-0.9,4.6-1,9.3-0.2,14c6.4,0.7,14.1,3.2,20,1.3c0.9-0.4,1.7-1.1,2.2-2.1c0-0.1-0.1-0.1-0.2-0.2
			C235.4,472.1,228.4,467.5,219.6,465.4z"/>
		<path d="M382.9,371.8c-43.9-7.9-23.2-66.8-24.9-95.5c-1.1-18.2-8.5-39.9-27.7-47.1c-20.1-7.6-45.3,5-50.9,24.9
			c-10.5-5.3-23-5.6-35-4.4c-16.3,1.6-33,4.5-48.5-2.5c-1.5-0.7-3-1.5-4.4-2.5c10.5-1.4,17.8-7.2,23.2-16.6c2.8-5,5.1-10.3,8.8-14.8
			c2.3-2.8,5.3-4.8,8.7-6h0.1c3.3-1.1,6.7-1.6,10.2-1.5c2.9,0,3.7-4.5,0.7-4.9c-10.7-1.6-21.2-4.8-27.6-13.7
			c-6.2-8.5-8.4-19.7-11.3-29.6c-3.4-11.2-6-21.5-15.5-29.5c-4.7-3.8-10.1-6.6-15.9-8.3c-1.9-0.6-3.8-1-5.6-1.5
			c-2.2-23.4-5.9-46.4-6.8-70c-0.4-9.8-1-19.8-0.5-29.6c0.3-5.2,1.8-13.6-2.7-17.7c-3.6-3.2-6.7,1.2-7.7,4.1
			c-3.2,9.2-3.8,20-5.3,29.5c-3.7,23.4-6.2,47-9.1,70.5c-21.8-7.3-62.1-8.8-71.5,16c-4.5,11.7,5.7,24,15.7,29.5
			c9.1,4.9,26.9,9.3,26.4,21.6v0.7c-0.4,2.9-1.2,5.8-2.5,8.5c-2.7,7.3-8.6,13.6-13.6,19.5c-6.5,7.9-12,16.5-16.4,25.7
			c-1.5,3-2.8,6.1-4,9.3c-0.1-0.1-0.1-0.2-0.2-0.3c-8.1-9.8-19-17.1-32.1-18c-12.6-0.9-24.8,7.2-30.9,17.3C0,245-0.2,257.9,0.1,269
			c0.2,10.7,1.2,21.3,3,31.9c2.8,14.6,12.4,43.2,33.2,37.8c8.4-2.2,12.5-9.5,12.8-17.2c0.4-0.4,0.6-1,0.6-1.6c0-0.6-0.2-1.1-0.6-1.6
			c-0.7-8.7-5.2-16.1-11.9-21.6c2.2-5.8,3.7-11.8,4.6-18c3,7.9,6.7,15.5,12.3,21.9H54c0,0,0.3,0.3,0.7,0.8c0.2,0.2,0.3,0.4,0.5,0.5
			c0.5,0.5,1,1.1,1.6,1.7c0.2,0.2,0.4,0.5,0.7,0.7l0.2,0.1c0.6,0.6,1.3,1.2,2,1.7c1.5,10.3,5.2,20.1,12.7,28
			c3.1,3.3,21.8,12.9,28,13.3c1.1,12,1.7,24-0.2,36.1c-2.7,17.5-3.2,34.2,0.6,51.6c2,8.9,2.9,18.1,5.1,27c1.7,7,4.5,15.4,12,18.3
			c8,3.1,17.2-4.7,19.9-11.2c4.2-10.2-0.5-23.8-3.3-33.8c-3.3-11.8-5.6-21.8-1.1-33.7c4.4-11.3,13.1-20.8,20.5-30.4
			c2.2-2.9,4.2-5.8,6.1-8.8l0.9,0.1c0,0.2,0.1,0.4,0.2,0.6c6.5,16.9,14.8,33,8.7,51.2c-3.2,9.5-7.3,18.9-10,28.5
			c-0.4,0.6-0.6,1.2-0.5,1.9c-1.6,6.1-2.2,12.3-1.8,18.6c0,0.6,0.2,1.1,0.6,1.5c0.3,0.4,0.8,0.7,1.4,0.9c8.9,1.7,17.7,3.3,26.7,4.3
			c0.6,0,1.1-0.2,1.6-0.5c0.5-0.3,0.8-0.8,0.9-1.3c6.6-29.5,26.3-54.4,34-83.4c5.8,4.6,11.4,8.8,12,17.8
			c1.1,14.5-7.7,29.2-13.4,42.1c-5.3,12-9.6,24.7-6.4,37.8c0.2,0.5,0.5,1,1,1.3c0.5,0.3,1,0.5,1.6,0.5c7.8,0.3,15.7,2.8,23.6,1.3
			c6.7-1.3,8.8-14,10.6-18.9c3.9-10.9,12-20.6,17.4-31c4.2-8.1,6.9-16.7,9.6-25.4c4.1-13.2,17.3-60-7.7-56.4
			c9.7-12.2,20.1-25,25.8-39.3c7.5,7,8.4,18.2,10.6,27.5c2.2,9.7,7.8,18.4,15.9,24.3c16.5,12.6,40,14.3,60,10.2
			C385.4,376.1,385.4,372.3,382.9,371.8z M284,256.5c2.8-11.7,13.1-19.9,24.7-23.5c11.6-3.5,23.3,0.4,31.4,8.8
			c13.8,14.2,13.8,36.7,11.9,54.8c-2.1,20.7-6.2,50.8,7.7,67.8c-11.1-6.5-20.1-14.8-23.6-28c-3.6-14-1-29.4-1.5-43.7
			c-0.4-10.6-1.5-23.2-9.4-31.4c-9.3-9.6-24.6-4-34.8,1.1c-0.5-0.6-1.1-1.2-1.7-1.8c-1.5-1.5-3-2.8-4.7-4
			C284,256.7,284,256.6,284,256.5z M214.7,217.2c-6.9,11.9-11.6,22.6-27.8,22.9c-0.3,0-0.6,0.1-0.9,0.2c-4.7-4.9-8.1-10.9-10-17.4
			c-2-7-3-14.2-3-21.5c13.6,13.2,31.5,8,49.1,6.5C219.2,210.5,216.7,213.7,214.7,217.2L214.7,217.2z M209.2,186.6
			c1.3,2.3,2.7,4.4,4.4,6.4c3.9,4.4,9,7.7,14.6,9.5c-19.1,0.5-40,9.5-54.2-7.6c-0.2-0.3-0.5-0.5-0.9-0.7c0.1-1.6,0.1-3.3,0.3-4.9
			c0.3-4.5,0.9-9.1,1.6-13.6c8.9,7.9,21.4,10.7,33.6,10.9C208.8,186.7,209,186.7,209.2,186.6L209.2,186.6z M167.6,123.6
			c7.4,1.6,14.3,5.2,19.8,10.3c9.4,8.8,11,22.9,14.5,34.5c1.3,4.5,2.9,8.9,4.7,13.3c-11.3-0.4-23.3-3.3-30.7-12
			c0.8-4.9,1.3-9.8,1.4-14.7c0.2-12.7-5.3-23.6-13.7-32.2L167.6,123.6z M147.7,45.8c1.4-9.7,3-19.5,4.8-29.1c0.5-3,1-6,1.6-9
			c1.2-5.4,0.7,1.1,0.7,3.5c0.4,14.2,0.1,28.3,0.5,42.5c-2.6-1.3-5.6-1.9-8.5-1.6C147.2,50,147.4,47.9,147.7,45.8L147.7,45.8z
			 M146.2,57.2c3.4-0.6,7.8-0.1,9,3.3c0.1,0.3,0.3,0.6,0.5,0.9c0.4,7.5,1.2,14.9,2.1,22.4c-4.2-3.6-9.1-5.7-14.6-4.1
			C144.2,72.2,145.2,64.7,146.2,57.2z M140.2,105.8c0.8-6.8,1.6-13.5,2.4-20.3l0.2-0.1c6.6-3.8,11.7,1.5,15.7,6.2
			c0.1,0.1,0.2,0.2,0.4,0.3c1,8.4,2.1,16.7,2.9,25c-3.6-0.8-6.9-2.2-10-4.2c-0.4-0.2-0.8-0.4-1.2-0.4c-3.5-2.1-7.1-3.9-10.8-5.5
			C140,106.6,140.1,106.2,140.2,105.8L140.2,105.8z M29.1,334.2c-3.4-0.8-6.5-2.8-8.6-5.5C26.9,324,35.9,321,44,322
			C43.3,329.3,37.8,335.8,29.1,334.2L29.1,334.2z M59,287.5c-0.2,3.6-0.2,7.3-0.1,10.9c-8.3-9-12.3-21-16.1-32.3
			c-0.1-0.3-0.2-0.6-0.4-0.9c-0.2-0.3-0.4-0.5-0.7-0.6c-0.3-0.2-0.6-0.3-0.9-0.3s-0.6,0-0.9,0.1c-0.6,0.1-1.1,0.4-1.6,0.9
			c-0.4,0.5-0.7,1-0.7,1.6c-0.2,10.2-2.1,20.2-5.8,29.7c-0.2,0.2-0.3,0.5-0.3,0.8c0,0.3,0,0.6,0.1,0.8c0.1,0.3,0.2,0.5,0.4,0.7
			c0.2,0.2,0.4,0.4,0.6,0.5c6,4.7,9.8,10.1,11.1,17.5c-9.1-0.8-18.9,2.4-26.2,7.6c-1.3-2.2-2.5-4.4-3.6-6.7
			c-3.4-7.2-5.5-14.9-6.5-22.7c-2.1-17.5-4.9-37.3,1.5-54.2c3.9-10.3,15.1-17.7,26.3-18.2c12.2-0.5,23,7.9,30.1,16.6
			c0.3,0.4,0.6,0.6,1.1,0.8c0.4,0.1,0.9,0.1,1.3,0C62.5,255.3,59.9,271.8,59,287.5L59,287.5z M126.6,474.4
			c-4.5,2.6-8.5,1.7-11.4-2.4c-1.4-2-2.5-4.2-3.2-6.5c7-1.7,14.4-1.6,21.4,0.4c-0.5,1.8-1.3,3.5-2.5,5S128.2,473.5,126.6,474.4
			L126.6,474.4z M184.1,464.8c-7.2-0.8-14.4-2.1-21.5-3.5c-0.1-4.7,0.4-9.4,1.5-14c8.3,2.2,14.9,7,21.1,12.8c0.1,0,0.1,0.1,0.2,0.2
			C184.8,461.8,184.4,463.3,184.1,464.8L184.1,464.8z M187,455c-6.3-5.7-13.3-10.4-21.7-12.5c3.3-11.1,8.6-21.8,11.2-33.2
			c3.6-15.9-4.2-31.4-10-46c14.5,1.2,29.2,0.1,41.3-7.6c-0.1,7.3,2,14.5,6.1,20.6c1.2,1.7,2.7,3.3,4.3,4.8
			C211.8,407.1,195.6,429.7,187,455L187,455z M239.6,480.8c-5.9,1.9-13.6-0.6-20-1.3c-0.8-4.6-0.8-9.4,0.2-14
			c8.7,2,15.7,6.6,21.9,13.1c0.1,0,0.1,0.1,0.2,0.2C241.3,479.6,240.5,480.4,239.6,480.8L239.6,480.8z M295.5,295.1
			c-0.6,23.1-18,42.1-31.8,59.6c-0.2,0.2-0.3,0.4-0.4,0.7c-0.1,0.3-0.1,0.5-0.1,0.8c-2.6,1.4-1.3,5.9,1.7,4.7
			c4.2-1.7,10.5-4,13.7,0.4c2.8,3.8,2.4,9.7,2.2,14.1c-0.7,12-4.4,23.9-7.9,35.4c-2.2,7.7-5.1,15.2-8.5,22.5
			c-4.8,9.7-11.6,18.4-16.3,28.1c-1.4,3.2-2.6,6.4-3.6,9.7c-0.2,0.6-0.5,1.5-0.8,2.5c-6.2-6.4-14.2-10.9-22.9-12.9
			c2.2-7,4.9-13.7,8.1-20.3c5.2-11.5,10.6-23.2,11.1-36c0.4-10.4-5.1-17-13.3-23c-0.8-0.6-1.6-1.3-2.4-2h-0.1c-0.7-0.5-3.8-4-3.8-4
			c-3.6-4.3-6-9.4-6.9-14.9c-0.4-1.8-0.6-3.6-0.5-5.4v-1.8c0-0.5,0.1-1,0.1-1.5c0.1,0,0-0.6,0.1-0.6c0.2-1.5,0.5-3,0.9-4.4
			c0-0.2,0.1-0.3,0.1-0.4l0.1-0.3c0.5-1.6,1.1-3.1,1.8-4.6c1.4-2.9-3.1-5.5-4.5-2.5c-1.5,3.3-2.6,6.7-3.2,10.2
			c-12.7,10.2-29.7,10.8-45.8,8.9c4.8-9.3,7.3-19.2,5.1-30.2c-0.6-3.2-5.6-1.8-5,1.3c5,26-19.4,43.8-31.1,64.4
			c-5.2,9.3-7.7,19.9-5.7,30.3c2.4,12.1,7.5,23.5,8,36v1c-7.7-2-15.7-2-23.4-0.1c-1.2-5-1.7-10.3-2.4-15
			c-2.1-14.7-5.8-28.4-5.1-43.4c0.5-9.2,2.5-18.2,3.3-27.3c0.8-9.1,0.1-18.5-0.8-27.7c-0.7-6.6-1.5-13.1-2.1-19.7
			c-0.3-3.2-5.5-3.2-5.2,0c0.5,5,1,9.9,1.5,14.9c-7.4-1.1-21.1-9.3-22.1-10.1c-4.3-3.7-7.7-8.5-9.9-13.8
			c-6.9-17.3-3.8-38.2-0.4-55.9c3.4-17.8,9.2-34.3,19.4-49.6c7.7-11.5,21.3-21.5,23.2-35.6c0.3-1.1,0.2-1,0.4-1.7
			c2-10.2-4.2-16.8-12.9-21.7c-11.2-6.3-23.8-9-28.8-22c-6.2-16.1,15.3-23.6,27.8-25.5c13.1-2,26.9,0,39.3,4.4
			c12.2,4.3,23.2,12,30.1,22.7c7.4,11.3,6.4,23.2,4.5,35.7c-0.2,0.4-0.2,0.8-0.2,1.2c-3.1,20.4-5.2,43.1,4,62.4
			c9.7,20.3,32.8,25.3,54.1,23.6c17.1-1.3,34.7-6,50.5,3.2C291.9,267.1,295.9,281.3,295.5,295.1
			C295.4,295.1,295.4,295.1,295.5,295.1L295.5,295.1z M321.4,358.4c-13.5-13.1-7.4-35-21.5-47.6c-0.3-0.3-0.7-0.5-1.1-0.6
			c-0.1-0.3-0.3-0.6-0.5-0.9c1.1-3.7,1.8-7.6,2.2-11.5c17.1,5.7,14.4,30.4,17.9,44.2c3.5,13.8,16.4,23.9,30.3,30.1
			C338.4,370.3,328.9,365.5,321.4,358.4L321.4,358.4z M333.4,356.1c-7.6-6.7-10.2-14.6-11.7-24c-2.2-14.8-3-34.7-21.1-39.4
			c0-9.3-2-18.3-7.2-26c11.1-5.4,25.1-9.4,31.7,3.8c5.3,10.6,4.5,24.4,4.3,35.8c-0.2,13.6-1.1,27.3,4.6,40.1
			c5.3,12,16.9,19.7,28.7,25.5C352,368.9,341.9,363.5,333.4,356.1L333.4,356.1z"/>
		<path d="M132.3,124c-1.1,0-2.2,0.4-3.1,1.1c-0.9,0.6-1.6,1.5-2,2.6c-0.4,1-0.5,2.2-0.2,3.2c0.2,1.1,0.8,2.1,1.6,2.8
			c0.8,0.8,1.8,1.3,2.9,1.5c1.1,0.2,2.2,0.1,3.2-0.4c1-0.4,1.9-1.2,2.5-2.1c0.6-0.9,0.9-2,0.9-3.1c0-1.5-0.7-3-1.8-4
			C135.3,124.5,133.9,124,132.3,124z"/>
		<path class="st0" d="M295.4,295c0.5-13.7-3.6-27.9-16.5-35.4c-15.8-9.2-33.3-4.6-50.5-3.2c-21.2,1.6-44.4-3.4-54.1-23.6
			c-9.2-19.3-7.1-42-4-62.4c-0.1-0.4,0-0.8,0.2-1.2c1.9-12.5,2.8-24.4-4.5-35.7c-6.9-10.6-17.9-18.3-30.1-22.7
			c-12.4-4.4-26.2-6.4-39.3-4.4c-9.1,1.4-23.1,5.8-27.5,14.3c11-0.6,36.2-0.7,57.5,8.6c0.2-1.5,0.9-2.8,2-3.8c1.1-1,2.6-1.5,4-1.4
			s2.9,0.6,3.9,1.7c1.1,1,1.7,2.4,1.7,3.9c0,0.9-0.2,1.8-0.6,2.6c-0.4,0.8-1,1.5-1.8,2c16.9,10.7,28.8,29.3,23.8,61.8
			c-13.7,87.7,86.4,76.9,102.5,76.9c16.1,0,27.9,38.9,11.8,66.2c-1,1.7-1.8,3.5-2.2,5.4C283.4,329.8,295,313.7,295.4,295L295.4,295z
			"/>
		<path class="st5" d="M158.8,92c-0.1-0.1-0.3-0.2-0.4-0.3c-2.4-2.8-5.3-5.8-8.6-7l-0.8,26.9c0.5,0.3,0.9,0.5,1.4,0.8
			c0.4,0,0.8,0.2,1.2,0.4c2,1.3,4.1,2.3,6.4,3.1l3.6,0.8C161,108.4,159.9,100.2,158.8,92z"/>
		<path class="st5" d="M150.7,57.2l-0.7,22.4c2.9,0.8,5.6,2.2,7.8,4.2c-0.9-7.4-1.7-14.9-2.1-22.4c-0.2-0.3-0.4-0.6-0.5-0.9
			c-0.4-0.9-1-1.7-1.8-2.3S151.7,57.3,150.7,57.2z"/>
		<path class="st5" d="M154.8,11.1c-0.1-2.4,0.4-8.8-0.7-3.5c-0.6,3-1.1,6-1.6,9c-0.2,1.2-0.4,2.5-0.7,3.7l-0.9,31.9
			c1.6,0.2,3.1,0.7,4.5,1.4C154.9,39.5,155.3,25.3,154.8,11.1z"/>
		<path class="st0" d="M65.3,239.3c-7.2-8.7-17.9-17-30.1-16.6c-11.2,0.4-22.4,7.9-26.3,18.2c-5,13.3-4.4,28.4-2.8,42.7
			c1.5-9.9,8.7-48.9,28.7-48.7c18.9,0.2,28.9,5.6,32.2,7.4c0.3-0.8,0.5-1.5,0.7-2.3c-0.4,0.2-0.9,0.2-1.4,0.1
			C66,239.9,65.6,239.7,65.3,239.3L65.3,239.3z"/>
		<path class="st4" d="M422.2,92.9c-0.1,0.4-0.4,0.7-0.7,1c-0.3,0.3-0.7,0.5-1.1,0.6l-7.4,1.8l5.9,4.8c0.3,0.3,0.6,0.6,0.8,1
			c0.2,0.4,0.2,0.8,0.2,1.2l-0.6,7.6l6.4-4.2c0.4-0.2,0.8-0.4,1.2-0.4c0.4,0,0.8,0,1.2,0.2l7.1,2.9l-2-7.4c-0.1-0.4-0.1-0.8,0-1.2
			c0.1-0.4,0.3-0.8,0.6-1.1l5-5.8l-7.6-0.4c-0.4,0-0.8-0.1-1.2-0.4c-0.4-0.2-0.7-0.5-0.9-0.9l-4-6.5L422.2,92.9z"/>
		<path class="st4" d="M465.3,115.5c-0.3,0.3-0.6,0.5-1,0.7c-0.4,0.1-0.8,0.2-1.2,0.1l-4.4-0.7l2.1,4c0.2,0.4,0.3,0.8,0.3,1.2
			c0,0.4-0.1,0.8-0.3,1.2l-2.1,4l4.4-0.8c0.4-0.1,0.8,0,1.2,0.1c0.4,0.1,0.8,0.4,1.1,0.7l3.2,3.2l0.6-4.4c0.1-0.4,0.2-0.8,0.5-1.1
			c0.2-0.3,0.6-0.6,1-0.8l4-2l-4-2c-0.4-0.2-0.7-0.5-0.9-0.8c-0.2-0.3-0.4-0.7-0.5-1.1l-0.6-4.5L465.3,115.5z"/>
		<path class="st4" d="M424.2,146.1c-0.2,0.3-0.6,0.6-0.9,0.8c-0.4,0.2-0.8,0.3-1.2,0.3l-4.4-0.1l2.6,3.5c0.3,0.3,0.4,0.7,0.5,1.1
			c0.1,0.4,0,0.8-0.1,1.2l-1.4,4.1l4.1-1.4c0.4-0.1,0.8-0.2,1.2-0.1c0.4,0.1,0.8,0.2,1.1,0.5l3.5,2.6l-0.1-4.4
			c0-0.4,0.1-0.8,0.3-1.2c0.2-0.4,0.5-0.7,0.8-0.9l3.5-2.5l-4.2-1.3c-0.4-0.1-0.8-0.3-1.1-0.6c-0.3-0.3-0.5-0.7-0.6-1.1l-1.3-4.2
			L424.2,146.1z"/>
		<path class="st8" d="M422,79.1l-4.1,10.7l-11.2,2.7c-0.5,0.1-0.9,0.4-1.2,0.7c-0.3,0.3-0.6,0.8-0.7,1.2c0,0.2-0.1,0.4-0.1,0.6
			c0,0.4,0.1,0.8,0.3,1.1c0.2,0.3,0.4,0.7,0.7,0.9l8.9,7.3l-0.9,11.5c0,0.5,0.1,1,0.3,1.4c0.2,0.4,0.6,0.8,1,1
			c0.4,0.3,0.9,0.4,1.4,0.4c0.5,0,1-0.2,1.4-0.4l9.7-6.2l10.6,4.4c0.4,0.2,0.9,0.2,1.4,0.2c0.5-0.1,0.9-0.3,1.3-0.6
			c0.4-0.3,0.6-0.7,0.8-1.2c0.1-0.5,0.2-1,0-1.4l-3-11.1l7.5-8.8c0.3-0.4,0.5-0.8,0.6-1.3c0.1-0.5,0-1-0.2-1.4
			c-0.2-0.4-0.5-0.8-0.9-1.1c-0.4-0.3-0.9-0.4-1.3-0.5l-11.5-0.6l-6-9.8c-0.3-0.4-0.6-0.7-1-1c-0.4-0.2-0.9-0.3-1.4-0.3
			c-0.5,0-0.9,0.2-1.3,0.5C422.5,78.3,422.2,78.7,422,79.1z M431,93.6l7.6,0.4l-5,5.8c-0.3,0.3-0.5,0.7-0.6,1.1
			c-0.1,0.4-0.1,0.8,0,1.2l2,7.4l-7.1-3c-0.4-0.2-0.8-0.2-1.2-0.2s-0.8,0.2-1.2,0.4l-6.4,4.2l0.6-7.6c0-0.4,0-0.8-0.2-1.2
			c-0.2-0.4-0.4-0.7-0.8-1l-5.9-4.8l7.4-1.8c0.4-0.1,0.8-0.3,1.1-0.6c0.3-0.3,0.6-0.6,0.7-1l2.7-7.1l4,6.5c0.2,0.4,0.5,0.7,0.9,0.9
			C430.2,93.4,430.6,93.6,431,93.6L431,93.6z"/>
		<path class="st8" d="M462.6,111l-8.3-1.4c-0.5-0.1-1,0-1.4,0.2c-0.4,0.2-0.8,0.5-1.1,0.9c-0.3,0.4-0.5,1-0.5,1.5
			c0,0.4,0.1,0.8,0.3,1.2l3.9,7.4l-3.9,7.4c-0.2,0.4-0.3,0.9-0.3,1.4c0,0.5,0.2,0.9,0.5,1.3c0.3,0.4,0.7,0.7,1.1,0.9
			s0.9,0.2,1.4,0.2l8.3-1.4l5.8,6c0.3,0.3,0.8,0.6,1.2,0.7s1,0.1,1.4-0.1c0.5-0.1,0.9-0.4,1.2-0.8c0.3-0.4,0.5-0.8,0.6-1.3l1.2-8.3
			l7.5-3.7c0.4-0.2,0.8-0.5,1.1-1c0.3-0.4,0.4-0.9,0.4-1.4c0-0.5-0.1-1-0.4-1.4s-0.6-0.7-1.1-1l-7.5-3.7l-1.2-8.3
			c-0.1-0.5-0.3-0.9-0.6-1.3s-0.7-0.6-1.2-0.8c-0.5-0.1-1-0.2-1.4-0.1s-0.9,0.4-1.2,0.7L462.6,111z M470.5,118.7l4,2l-4,2
			c-0.4,0.2-0.7,0.5-0.9,0.8c-0.2,0.3-0.4,0.7-0.5,1.1l-0.6,4.5l-3.2-3.2c-0.3-0.3-0.7-0.5-1.1-0.7c-0.4-0.1-0.8-0.2-1.2-0.1
			l-4.4,0.8l2.1-4c0.2-0.4,0.3-0.8,0.3-1.2c0-0.4-0.1-0.8-0.3-1.2l-2.1-4l4.4,0.7c0.4,0.1,0.8,0,1.2-0.1c0.4-0.1,0.8-0.4,1-0.7
			l3.2-3.2l0.6,4.5c0.1,0.4,0.2,0.8,0.5,1.1C469.8,118.2,470.1,118.5,470.5,118.7z"/>
		<path class="st8" d="M428,134.2c-0.5-0.1-1,0-1.4,0.2c-0.4,0.2-0.8,0.5-1.1,0.9l-4.7,6.7l-8.2-0.1c-0.5,0-1,0.1-1.4,0.4
			c-0.4,0.3-0.7,0.6-1,1c-0.2,0.4-0.3,0.9-0.3,1.4s0.2,0.9,0.5,1.3l4.9,6.6l-2.6,7.8c-0.2,0.5-0.2,0.9-0.1,1.4s0.3,0.9,0.7,1.2
			c0.3,0.3,0.8,0.6,1.2,0.7c0.5,0.1,1,0.1,1.4-0.1l7.8-2.7l6.6,4.9c0.4,0.3,0.8,0.5,1.3,0.5c0.5,0,1-0.1,1.4-0.3
			c0.4-0.2,0.8-0.6,1-1s0.4-0.9,0.4-1.4l-0.1-8.2l6.7-4.8c0.4-0.3,0.7-0.7,0.9-1.1c0.2-0.4,0.2-0.9,0.2-1.4
			c-0.1-0.5-0.3-0.9-0.6-1.3c-0.3-0.4-0.7-0.6-1.2-0.8l-7.9-2.4l-2.5-7.8c-0.2-0.5-0.4-0.9-0.8-1.2
			C428.9,134.5,428.4,134.3,428,134.2z M429.7,148.4l4.2,1.3l-3.5,2.5c-0.3,0.2-0.6,0.6-0.8,0.9c-0.2,0.4-0.3,0.8-0.3,1.2l0.1,4.3
			l-3.5-2.6c-0.3-0.3-0.7-0.4-1.1-0.5c-0.4-0.1-0.8,0-1.2,0.1l-4.1,1.4l1.4-4.1c0.1-0.4,0.2-0.8,0.1-1.2c-0.1-0.4-0.2-0.8-0.5-1.1
			l-2.6-3.5l4.4,0.1c0.4,0,0.8-0.1,1.2-0.3c0.4-0.2,0.7-0.5,0.9-0.8l2.5-3.6l1.3,4.2c0.1,0.4,0.4,0.7,0.7,1
			C428.9,148.1,429.3,148.3,429.7,148.4z"/>
		<path class="st4" d="M345,202.5c0.4,0.1,0.7,0.4,1,0.7c0.3,0.3,0.5,0.7,0.6,1.1l1.8,7.4l4.8-5.9c0.3-0.3,0.6-0.6,1-0.7
			s0.8-0.2,1.2-0.2l7.6,0.6l-4.2-6.4c-0.2-0.4-0.4-0.8-0.4-1.2s0-0.8,0.2-1.2l2.9-7.1l-7.4,2c-0.4,0.1-0.8,0.1-1.2,0
			c-0.4-0.1-0.8-0.3-1.1-0.6l-5.8-5l-0.4,7.6c0,0.4-0.1,0.8-0.4,1.2s-0.5,0.7-0.9,0.9l-6.5,4L345,202.5z"/>
		<path class="st4" d="M367.7,159.5c0.3,0.3,0.5,0.6,0.7,1c0.1,0.4,0.2,0.8,0.1,1.2l-0.8,4.4l4-2.1c0.4-0.2,0.8-0.3,1.2-0.3
			s0.8,0.1,1.2,0.3l4,2.1l-0.8-4.4c-0.1-0.4,0-0.8,0.1-1.2s0.4-0.8,0.7-1.1l3.2-3.2l-4.4-0.6c-0.4-0.1-0.8-0.2-1.2-0.5
			c-0.3-0.2-0.6-0.6-0.8-1l-2-4l-2,4c-0.2,0.4-0.5,0.7-0.8,0.9c-0.3,0.2-0.7,0.4-1.1,0.5l-4.5,0.6L367.7,159.5z"/>
		<path class="st4" d="M398.3,200.6c0.3,0.2,0.6,0.6,0.8,0.9c0.2,0.4,0.3,0.8,0.3,1.2l-0.1,4.4l3.5-2.6c0.3-0.3,0.7-0.4,1.1-0.5
			c0.4-0.1,0.8,0,1.2,0.1l4.1,1.4l-1.4-4.1c-0.1-0.4-0.2-0.8-0.1-1.2c0.1-0.4,0.2-0.8,0.5-1.1l2.6-3.5l-4.4,0.1
			c-0.4,0-0.8-0.1-1.2-0.3s-0.7-0.5-0.9-0.8l-2.5-3.5l-1.3,4.2c-0.1,0.4-0.3,0.8-0.6,1.1c-0.3,0.3-0.7,0.5-1.1,0.6l-4.2,1.3
			L398.3,200.6z"/>
		<path class="st8" d="M331.2,202.7l10.8,4.1l2.7,11.2c0.1,0.5,0.4,0.9,0.7,1.2c0.3,0.3,0.8,0.6,1.2,0.7c0.2,0,0.4,0.1,0.6,0.1
			c0.4,0,0.8-0.1,1.1-0.3c0.3-0.2,0.7-0.4,0.9-0.7l7.3-8.9l11.5,0.9c0.5,0,1-0.1,1.4-0.3c0.4-0.2,0.8-0.5,1-1
			c0.3-0.4,0.4-0.9,0.4-1.4c0-0.5-0.2-1-0.4-1.4l-6.3-9.7l4.4-10.6c0.2-0.4,0.2-0.9,0.2-1.4c-0.1-0.5-0.3-0.9-0.6-1.3
			s-0.7-0.6-1.2-0.8c-0.5-0.1-1-0.1-1.4,0l-11.1,3l-8.8-7.5c-0.4-0.3-0.8-0.5-1.3-0.6c-0.5-0.1-1,0-1.4,0.2
			c-0.4,0.2-0.8,0.5-1.1,0.9c-0.3,0.4-0.4,0.9-0.5,1.3l-0.6,11.5l-9.8,6c-0.4,0.3-0.7,0.6-1,1c-0.2,0.4-0.3,0.9-0.3,1.4
			c0,0.5,0.2,0.9,0.5,1.3C330.4,202.2,330.7,202.5,331.2,202.7z M345.7,193.7l0.4-7.6l5.8,5c0.3,0.3,0.7,0.5,1.1,0.6
			c0.4,0.1,0.8,0.1,1.2,0l7.4-2l-3,7.1c-0.2,0.4-0.2,0.8-0.2,1.2c0,0.4,0.2,0.8,0.4,1.2l4.2,6.4l-7.6-0.6c-0.4,0-0.8,0-1.2,0.2
			s-0.7,0.4-1,0.8l-4.8,5.9l-1.8-7.4c-0.1-0.4-0.3-0.8-0.6-1.1c-0.3-0.3-0.6-0.6-1-0.7l-7.1-2.7l6.5-4c0.4-0.2,0.7-0.5,0.9-0.9
			C345.5,194.6,345.7,194.2,345.7,193.7L345.7,193.7z"/>
		<path class="st8" d="M363.1,162.2l-1.4,8.3c-0.1,0.5,0,1,0.2,1.4c0.2,0.4,0.5,0.8,0.9,1.1c0.4,0.3,1,0.5,1.5,0.5
			c0.4,0,0.8-0.1,1.2-0.3l7.4-3.9l7.4,3.9c0.4,0.2,0.9,0.3,1.4,0.3c0.5,0,0.9-0.2,1.3-0.5s0.7-0.7,0.9-1.1c0.2-0.4,0.2-0.9,0.2-1.4
			l-1.4-8.3l6-5.8c0.3-0.3,0.6-0.8,0.7-1.2c0.1-0.5,0.1-1-0.1-1.4c-0.1-0.5-0.4-0.9-0.8-1.2c-0.4-0.3-0.8-0.5-1.3-0.6l-8.3-1.2
			l-3.7-7.5c-0.2-0.4-0.5-0.8-1-1.1c-0.4-0.3-0.9-0.4-1.4-0.4c-0.5,0-1,0.1-1.4,0.4c-0.4,0.3-0.7,0.6-1,1.1l-3.7,7.5l-8.3,1.2
			c-0.5,0.1-0.9,0.3-1.3,0.6c-0.4,0.3-0.6,0.7-0.8,1.2s-0.2,1-0.1,1.4c0.1,0.5,0.4,0.9,0.7,1.2L363.1,162.2z M370.9,154.3l2-4l2,4
			c0.2,0.4,0.5,0.7,0.8,0.9c0.3,0.2,0.7,0.4,1.1,0.5l4.5,0.6l-3.2,3.2c-0.3,0.3-0.5,0.7-0.7,1.1c-0.1,0.4-0.2,0.8-0.1,1.2l0.8,4.4
			l-4-2.1c-0.4-0.2-0.8-0.3-1.2-0.3s-0.8,0.1-1.2,0.3l-4,2.1l0.8-4.4c0.1-0.4,0-0.8-0.1-1.2c-0.1-0.4-0.4-0.8-0.7-1l-3.2-3.2
			l4.5-0.6c0.4-0.1,0.8-0.2,1.1-0.5C370.4,155,370.7,154.7,370.9,154.3L370.9,154.3z"/>
		<path class="st8" d="M386.4,196.8c-0.1,0.5,0,1,0.2,1.4s0.5,0.8,0.9,1.1l6.8,4.7l-0.1,8.2c0,0.5,0.1,1,0.4,1.4
			c0.3,0.4,0.6,0.7,1,1c0.4,0.2,0.9,0.3,1.4,0.3s0.9-0.2,1.3-0.5l6.6-4.9l7.8,2.6c0.5,0.2,1,0.2,1.4,0.1c0.5-0.1,0.9-0.3,1.2-0.7
			c0.3-0.3,0.6-0.8,0.7-1.2c0.1-0.5,0.1-1-0.1-1.4l-2.7-7.8l4.9-6.6c0.3-0.4,0.5-0.8,0.5-1.3c0-0.5-0.1-1-0.3-1.4
			c-0.2-0.4-0.6-0.8-1-1c-0.4-0.2-0.9-0.4-1.4-0.4l-8.3,0.1l-4.8-6.7c-0.3-0.4-0.7-0.7-1.1-0.9c-0.4-0.2-0.9-0.2-1.4-0.2
			c-0.5,0.1-0.9,0.3-1.3,0.6c-0.4,0.3-0.6,0.7-0.8,1.2l-2.4,7.9l-7.9,2.5c-0.5,0.2-0.9,0.4-1.2,0.8
			C386.7,195.9,386.5,196.3,386.4,196.8z M400.6,195.1l1.3-4.2l2.5,3.5c0.2,0.3,0.6,0.6,0.9,0.8c0.4,0.2,0.8,0.3,1.2,0.3l4.3-0.1
			l-2.6,3.5c-0.3,0.3-0.4,0.7-0.5,1.1c-0.1,0.4,0,0.8,0.1,1.2l1.4,4.1l-4.1-1.4c-0.4-0.1-0.8-0.2-1.2-0.1c-0.4,0.1-0.8,0.2-1.1,0.5
			l-3.5,2.6l0.1-4.4c0-0.4-0.1-0.8-0.3-1.2c-0.2-0.4-0.5-0.7-0.8-0.9l-3.6-2.5l4.2-1.3c0.4-0.1,0.7-0.4,1-0.7
			C400.3,195.8,400.5,195.5,400.6,195.1L400.6,195.1z"/>
	</g>
</g>
</svg>
